:FULLY-SPECIFIED
:FORCE-ALL-JOINTS-BE-3DOF
:DEGREES
849
root 3.727 16.3652 27.8874 -7.84938 5.33504 357.221
lfemur -23.6374 2.20448 -13.4576
ltibia 34.4679 0 0
lfoot -3.89721 -13.5681 0
ltoes 6.38023 0 0
rfemur -25.0999 -4.79876 4.76642
rtibia 69.178 0 0
rfoot 19.3257 10.2618 0
rtoes -16.6729 0 0
lowerback 3.38874 3.25092 -0.624405
upperback 0.866753 4.14974 0.320118
thorax -0.919202 2.0778 0.849418
lowerneck -6.29051 -3.40099 2.85883
upperneck 8.56133 -5.02041 1.79354
head 3.88582 -2.30347 -0.173704
lclavicle 2.6822e-14 -1.23724e-14 0
lhumerus -49.3202 -9.76185 84.0973
lradius 54.0912 0 0
lwrist 19.0413 0 0
lhand -0.995105 4.46514 0
lfingers 7.12502 0 0
lthumb 24.6257 32.7867 0
rclavicle 2.6822e-14 -1.23724e-14 0
rhumerus -39.2814 16.8453 -70.1597
rradius 54.3726 0 0
rwrist 4.94031 0 0
rhand -25.7933 -26.681 0
rfingers 7.12502 0 0
rthumb 0.743154 -776.493 0
850
root 3.75409 16.388 28.0225 -8.58861 6.61824 357.395
lfemur -22.5251 2.58528 -14.0509
ltibia 34.4456 0 0
lfoot -3.97057 -14.9087 0
ltoes 8.1097 0 0
rfemur -28.5727 -4.40006 4.77231
rtibia 68.2909 0 0
rfoot 18.2249 9.18263 0
rtoes -15.2257 0 0
lowerback 4.35594 2.77687 -1.00702
upperback 1.20588 3.48122 0.181354
thorax -1.09752 1.74452 0.939754
lowerneck -6.30287 -3.39691 2.81015
upperneck 8.51812 -5.0222 1.93195
head 3.87865 -2.30039 -0.119513
lclavicle 2.61665e-14 -1.3056e-14 0
lhumerus -48.0179 -10.9519 83.7533
lradius 54.2208 0 0
lwrist 19.4254 0 0
lhand -0.170838 4.45277 0
lfingers 7.12502 0 0
lthumb 25.4143 32.6531 0
rclavicle 2.61665e-14 -1.3056e-14 0
rhumerus -40.3541 15.1763 -68.4667
rradius 54.128 0 0
rwrist 4.54328 0 0
rhand -24.5211 -26.9783 0
rfingers 7.12502 0 0
rthumb 1.9713 -776.767 0
851
root 3.78195 16.4113 28.1615 -9.34873 7.93771 357.574
lfemur -21.3814 2.97684 -14.6609
ltibia 34.4227 0 0
lfoot -4.04601 -16.2871 0
ltoes 9.88803 0 0
rfemur -32.1436 -3.99009 4.77837
rtibia 67.3786 0 0
rfoot 17.0931 8.07296 0
rtoes -13.7377 0 0
lowerback 5.35047 2.28943 -1.40045
upperback 1.55459 2.7938 0.0386679
thorax -1.28088 1.40182 1.03264
lowerneck -6.31558 -3.39272 2.76009
upperneck 8.47369 -5.02404 2.07427
head 3.87127 -2.29722 -0.0637908
lclavicle 2.54926e-14 -1.3759e-14 0
lhumerus -46.6788 -12.1755 83.3995
lradius 54.3541 0 0
lwrist 19.8204 0 0
lhand 0.676719 4.44006 0
lfingers 7.12502 0 0
lthumb 26.2252 32.5158 0
rclavicle 2.54926e-14 -1.3759e-14 0
rhumerus -41.4571 13.4602 -66.7259
rradius 53.8765 0 0
rwrist 4.13503 0 0
rhand -23.213 -27.284 0
rfingers 7.12502 0 0
rthumb 3.23414 -777.05 0
852
root 3.81006 16.435 28.3017 -10.1158 9.26926 357.754
lfemur -20.2271 3.37198 -15.2766
ltibia 34.3995 0 0
lfoot -4.12214 -17.6781 0
ltoes 11.6827 0 0
rfemur -35.7472 -3.57637 4.78447
rtibia 66.4581 0 0
rfoot 15.9508 6.95313 0
rtoes -12.236 0 0
lowerback 6.35411 1.79753 -1.79747
upperback 1.9065 2.10009 -0.105325
thorax -1.46592 1.05599 1.12638
lowerneck -6.32841 -3.38849 2.70957
upperneck 8.42885 -5.0259 2.2179
head 3.86384 -2.29402 -0.00755823
lclavicle 2.48124e-14 -1.44684e-14 0
lhumerus -45.3274 -13.4103 83.0426
lradius 54.4887 0 0
lwrist 20.2189 0 0
lhand 1.53204 4.42722 0
lfingers 7.12502 0 0
lthumb 27.0436 32.3771 0
rclavicle 2.48124e-14 -1.44684e-14 0
rhumerus -42.5703 11.7284 -64.9692
rradius 53.6228 0 0
rwrist 3.72304 0 0
rhand -21.8929 -27.5926 0
rfingers 7.12502 0 0
rthumb 4.50856 -777.334 0
853
root 3.83792 16.4583 28.4407 -10.8759 10.5887 357.933
lfemur -19.0834 3.76354 -15.8866
ltibia 34.3766 0 0
lfoot -4.19758 -19.0566 0
ltoes 13.461 0 0
rfemur -39.3181 -3.1664 4.79053
rtibia 65.5458 0 0
rfoot 14.819 5.84347 0
rtoes -10.7479 0 0
lowerback 7.34864 1.31009 -2.1909
upperback 2.25521 1.41267 -0.248011
thorax -1.64927 0.713288 1.21927
lowerneck -6.34112 -3.3843 2.65951
upperneck 8.38442 -5.02774 2.36022
head 3.85646 -2.29085 0.0481639
lclavicle 2.41385e-14 -1.51714e-14 0
lhumerus -43.9883 -14.6339 82.6888
lradius 54.622 0 0
lwrist 20.6139 0 0
lhand 2.3796 4.41451 0
lfingers 7.12502 0 0
lthumb 27.8545 32.2398 0
rclavicle 2.41385e-14 -1.51714e-14 0
rhumerus -43.6733 10.0123 -63.2284
rradius 53.3713 0 0
rwrist 3.31479 0 0
rhand -20.5848 -27.8983 0
rfingers 7.12502 0 0
rthumb 5.7714 -777.617 0
854
root 3.86501 16.4811 28.5758 -11.6152 11.8719 358.107
lfemur -17.9711 4.14433 -16.4799
ltibia 34.3543 0 0
lfoot -4.27094 -20.3971 0
ltoes 15.1904 0 0
rfemur -42.7909 -2.7677 4.79642
rtibia 64.6587 0 0
rfoot 13.7182 4.76429 0
rtoes -9.30079 0 0
lowerback 8.31584 0.836043 -2.57351
upperback 2.59433 0.74415 -0.386775
thorax -1.82759 0.380007 1.30961
lowerneck -6.35348 -3.38022 2.61083
upperneck 8.34121 -5.02953 2.49863
head 3.84929 -2.28777 0.102355
lclavicle 2.3483e-14 -1.5855e-14 0
lhumerus -42.686 -15.8239 82.3448
lradius 54.7516 0 0
lwrist 20.998 0 0
lhand 3.20386 4.40214 0
lfingers 7.12502 0 0
lthumb 28.6431 32.1062 0
rclavicle 2.3483e-14 -1.5855e-14 0
rhumerus -44.746 8.3433 -61.5354
rradius 53.1267 0 0
rwrist 2.91776 0 0
rhand -19.3126 -28.1956 0
rfingers 7.12502 0 0
rthumb 6.99955 -777.891 0
855
root 3.89083 16.5028 28.7046 -12.3196 13.0947 358.273
lfemur -16.9112 4.5072 -17.0453
ltibia 34.333 0 0
lfoot -4.34085 -21.6745 0
ltoes 16.8385 0 0
rfemur -46.1001 -2.38777 4.80203
rtibia 63.8133 0 0
rfoot 12.6693 3.73595 0
rtoes -7.92179 0 0
lowerback 9.23749 0.384324 -2.93811
upperback 2.91749 0.107111 -0.519004
thorax -1.99751 0.0624222 1.39569
lowerneck -6.36525 -3.37634 2.56444
upperneck 8.30004 -5.03124 2.63053
head 3.84246 -2.28484 0.153993
lclavicle 2.28584e-14 -1.65065e-14 0
lhumerus -41.4451 -16.9579 82.0169
lradius 54.8751 0 0
lwrist 21.364 0 0
lhand 3.98931 4.39036 0
lfingers 7.12502 0 0
lthumb 29.3946 31.9789 0
rclavicle 2.28584e-14 -1.65065e-14 0
rhumerus -45.7682 6.75295 -59.9222
rradius 52.8936 0 0
rwrist 2.53943 0 0
rhand -18.1003 -28.479 0
rfingers 7.12502 0 0
rthumb 8.16985 -778.153 0
856
root 3.91485 16.5229 28.8245 -12.9752 14.2329 358.427
lfemur -15.9246 4.84495 -17.5715
ltibia 34.3132 0 0
lfoot -4.40592 -22.8635 0
ltoes 18.3724 0 0
rfemur -49.1804 -2.03414 4.80725
rtibia 63.0264 0 0
rfoot 11.6929 2.77875 0
rtoes -6.63821 0 0
lowerback 10.0954 -0.0361398 -3.27748
upperback 3.21829 -0.48585 -0.642084
thorax -2.15568 -0.233188 1.47582
lowerneck -6.37622 -3.37273 2.52126
upperneck 8.26171 -5.03283 2.75329
head 3.8361 -2.28211 0.202059
lclavicle 2.22771e-14 -1.71128e-14 0
lhumerus -40.29 -18.0134 81.7118
lradius 54.9901 0 0
lwrist 21.7046 0 0
lhand 4.72041 4.37939 0
lfingers 7.12502 0 0
lthumb 30.0941 31.8604 0
rclavicle 2.22771e-14 -1.71128e-14 0
rhumerus -46.7197 5.27264 -58.4206
rradius 52.6767 0 0
rwrist 2.18727 0 0
rhand -16.9719 -28.7427 0
rfingers 7.12502 0 0
rthumb 9.25917 -778.396 0
857
root 3.93659 16.5412 28.9329 -13.5683 15.2623 358.567
lfemur -15.0323 5.15043 -18.0474
ltibia 34.2953 0 0
lfoot -4.46478 -23.9389 0
ltoes 19.7598 0 0
rfemur -51.9662 -1.7143 4.81197
rtibia 62.3147 0 0
rfoot 10.8099 1.91304 0
rtoes -5.47731 0 0
lowerback 10.8713 -0.416417 -3.58441
upperback 3.49033 -1.02214 -0.753401
thorax -2.29873 -0.500545 1.54828
lowerneck -6.38613 -3.36946 2.48221
upperneck 8.22705 -5.03426 2.86433
head 3.83035 -2.27964 0.245531
lclavicle 2.17513e-14 -1.76613e-14 0
lhumerus -39.2453 -18.968 81.4358
lradius 55.0941 0 0
lwrist 22.0128 0 0
lhand 5.38163 4.36947 0
lfingers 7.12502 0 0
lthumb 30.7268 31.7533 0
rclavicle 2.17513e-14 -1.76613e-14 0
rhumerus -47.5802 3.93381 -57.0625
rradius 52.4805 0 0
rwrist 1.86878 0 0
rhand -15.9514 -28.9812 0
rfingers 7.12502 0 0
rthumb 10.2444 -778.616 0
858
root 3.95551 16.5571 29.0273 -14.0847 16.1587 358.689
lfemur -14.2552 5.41645 -18.4619
ltibia 34.2797 0 0
lfoot -4.51603 -24.8754 0
ltoes 20.968 0 0
rfemur -54.3923 -1.43577 4.81609
rtibia 61.695 0 0
rfoot 10.0409 1.15915 0
rtoes -4.46634 0 0
lowerback 11.5469 -0.747579 -3.8517
upperback 3.72724 -1.48916 -0.85034
thorax -2.4233 -0.733371 1.61139
lowerneck -6.39477 -3.36661 2.4482
upperneck 8.19686 -5.03552 2.96102
head 3.82534 -2.27749 0.283388
lclavicle 2.12934e-14 -1.81389e-14 0
lhumerus -38.3355 -19.7993 81.1955
lradius 55.1847 0 0
lwrist 22.2811 0 0
lhand 5.95746 4.36083 0
lfingers 7.12502 0 0
lthumb 31.2777 31.6599 0
rclavicle 2.12934e-14 -1.81389e-14 0
rhumerus -48.3296 2.7679 -55.8799
rradius 52.3097 0 0
rwrist 1.59142 0 0
rhand -15.0627 -29.1889 0
rfingers 7.12502 0 0
rthumb 11.1024 -778.808 0
859
root 3.97112 16.5702 29.1052 -14.5106 16.898 358.789
lfemur -13.6144 5.63584 -18.8037
ltibia 34.2669 0 0
lfoot -4.5583 -25.6477 0
ltoes 21.9644 0 0
rfemur -56.393 -1.20606 4.81948
rtibia 61.1839 0 0
rfoot 9.40675 0.537396 0
rtoes -3.63259 0 0
lowerback 12.1042 -1.02069 -4.07214
upperback 3.92263 -1.87432 -0.930288
thorax -2.52603 -0.925386 1.66344
lowerneck -6.40189 -3.36426 2.42016
upperneck 8.17197 -5.03655 3.04076
head 3.82121 -2.27571 0.314609
lclavicle 2.09158e-14 -1.85327e-14 0
lhumerus -37.5852 -20.4849 80.9973
lradius 55.2594 0 0
lwrist 22.5024 0 0
lhand 6.43235 4.35371 0
lfingers 7.12502 0 0
lthumb 31.7321 31.583 0
rclavicle 2.09158e-14 -1.85327e-14 0
rhumerus -48.9476 1.80635 -54.9045
rradius 52.1688 0 0
rwrist 1.36267 0 0
rhand -14.3297 -29.3602 0
rfingers 7.12502 0 0
rthumb 11.8099 -778.966 0
860
root 3.9829 16.5801 29.1639 -14.832 17.456 358.865
lfemur -13.1307 5.80143 -19.0617
ltibia 34.2572 0 0
lfoot -4.5902 -26.2306 0
ltoes 22.7165 0 0
rfemur -57.9032 -1.03268 4.82204
rtibia 60.7981 0 0
rfoot 8.92809 0.0681169 0
rtoes -3.00329 0 0
lowerback 12.5248 -1.22683 -4.23852
upperback 4.0701 -2.16503 -0.99063
thorax -2.60358 -1.07031 1.70272
lowerneck -6.40726 -3.36249 2.39899
upperneck 8.15318 -5.03733 3.10095
head 3.8181 -2.27437 0.338174
lclavicle 2.06307e-14 -1.883e-14 0
lhumerus -37.0189 -21.0024 80.8477
lradius 55.3158 0 0
lwrist 22.6694 0 0
lhand 6.79078 4.34833 0
lfingers 7.12502 0 0
lthumb 32.075 31.5249 0
rclavicle 2.06307e-14 -1.883e-14 0
rhumerus -49.4141 1.0806 -54.1683
rradius 52.0624 0 0
rwrist 1.19002 0 0
rhand -13.7765 -29.4895 0
rfingers 7.12502 0 0
rthumb 12.344 -779.085 0
861
root 3.99035 16.5863 29.2011 -15.0351 17.8085 358.912
lfemur -12.8251 5.90604 -19.2247
ltibia 34.251 0 0
lfoot -4.61035 -26.5989 0
ltoes 23.1916 0 0
rfemur -58.8572 -0.923151 4.82366
rtibia 60.5544 0 0
rfoot 8.62568 -0.228359 0
rtoes -2.60572 0 0
lowerback 12.7905 -1.35706 -4.34363
upperback 4.16326 -2.34869 -1.02875
thorax -2.65256 -1.16187 1.72754
lowerneck -6.41066 -3.36137 2.38561
upperneck 8.14131 -5.03782 3.13898
head 3.81613 -2.27352 0.353062
lclavicle 2.04507e-14 -1.90178e-14 0
lhumerus -36.6611 -21.3293 80.7531
lradius 55.3514 0 0
lwrist 22.7749 0 0
lhand 7.01723 4.34493 0
lfingers 7.12502 0 0
lthumb 32.2917 31.4882 0
rclavicle 2.04507e-14 -1.90178e-14 0
rhumerus -49.7088 0.622097 -53.7032
rradius 51.9952 0 0
rwrist 1.08095 0 0
rhand -13.427 -29.5712 0
rfingers 7.12502 0 0
rthumb 12.6814 -779.161 0
862
root 3.99294 16.5885 29.214 -15.1059 17.9314 358.929
lfemur -12.7186 5.94251 -19.2815
ltibia 34.2489 0 0
lfoot -4.61738 -26.7273 0
ltoes 23.3572 0 0
rfemur -59.1898 -0.884971 4.82422
rtibia 60.4694 0 0
rfoot 8.52027 -0.331702 0
rtoes -2.46714 0 0
lowerback 12.8831 -1.40246 -4.38027
upperback 4.19574 -2.41271 -1.04204
thorax -2.66964 -1.19379 1.73619
lowerneck -6.41184 -3.36098 2.38095
upperneck 8.13717 -5.03799 3.15223
head 3.81544 -2.27323 0.358251
lclavicle 2.03879e-14 -1.90833e-14 0
lhumerus -36.5364 -21.4433 80.7202
lradius 55.3638 0 0
lwrist 22.8117 0 0
lhand 7.09616 4.34375 0
lfingers 7.12502 0 0
lthumb 32.3672 31.4754 0
rclavicle 2.03879e-14 -1.90833e-14 0
rhumerus -49.8115 0.462276 -53.5411
rradius 51.9718 0 0
rwrist 1.04293 0 0
rhand -13.3052 -29.5997 0
rfingers 7.12502 0 0
rthumb 12.799 -779.187 0
